<mxfile host="www.draw.io" modified="2020-01-28T03:39:45.960Z" agent="Mozilla/5.0 (Windows NT 10.0; Win64; x64) AppleWebKit/537.36 (KHTML, like Gecko) Chrome/79.0.3945.130 Safari/537.36 OPR/66.0.3515.44" etag="suuNtCQ6di-c6-YpVher" version="12.5.8" type="github">
  <diagram id="6a731a19-8d31-9384-78a2-239565b7b9f0" name="Page-1">
    <mxGraphModel dx="742" dy="708" grid="1" gridSize="10" guides="1" tooltips="1" connect="1" arrows="1" fold="1" page="1" pageScale="1" pageWidth="827" pageHeight="1169" background="#ffffff" math="0" shadow="0">
      <root>
        <mxCell id="0"/>
        <mxCell id="1" parent="0"/>
        <mxCell id="2" value="start" style="shape=mxgraph.flowchart.terminator;strokeWidth=2;gradientColor=none;gradientDirection=north;fontStyle=0;html=1;" parent="1" vertex="1">
          <mxGeometry x="260" y="60" width="120" height="30" as="geometry"/>
        </mxCell>
        <mxCell id="3" value="เปิดแฟ้มข้อมูล XGA &lt;br&gt;ส่วน RAW DATA" style="shape=mxgraph.flowchart.data;strokeWidth=2;gradientColor=none;gradientDirection=north;fontStyle=0;html=1;" parent="1" vertex="1">
          <mxGeometry x="240.5" y="130" width="159" height="80" as="geometry"/>
        </mxCell>
        <mxCell id="6H0UAOoWNLqQX3c4M_eM-56" style="edgeStyle=orthogonalEdgeStyle;rounded=0;orthogonalLoop=1;jettySize=auto;html=1;exitX=0.5;exitY=1;exitDx=0;exitDy=0;exitPerimeter=0;entryX=0.5;entryY=0;entryDx=0;entryDy=0;entryPerimeter=0;strokeColor=#003366;" parent="1" source="6" target="6H0UAOoWNLqQX3c4M_eM-55" edge="1">
          <mxGeometry relative="1" as="geometry"/>
        </mxCell>
        <mxCell id="6" value="&lt;span style=&quot;color: rgb(34 , 34 , 34) ; font-family: &amp;#34;arial&amp;#34; , &amp;#34;helvetica&amp;#34; , sans-serif ; font-size: small ; white-space: normal ; background-color: rgb(255 , 255 , 255)&quot;&gt;&quot;HasExternalPower&quot;&lt;/span&gt;" style="shape=mxgraph.flowchart.decision;strokeWidth=2;gradientColor=none;gradientDirection=north;fontStyle=0;html=1;" parent="1" vertex="1">
          <mxGeometry x="240" y="250" width="159.5" height="78" as="geometry"/>
        </mxCell>
        <mxCell id="7" style="fontStyle=1;strokeColor=#003366;strokeWidth=1;html=1;" parent="1" source="2" target="3" edge="1">
          <mxGeometry relative="1" as="geometry"/>
        </mxCell>
        <mxCell id="9" style="entryX=0.5;entryY=0;entryPerimeter=0;fontStyle=1;strokeColor=#003366;strokeWidth=1;html=1;" parent="1" source="3" target="6" edge="1">
          <mxGeometry relative="1" as="geometry">
            <mxPoint x="320" y="330" as="sourcePoint"/>
          </mxGeometry>
        </mxCell>
        <mxCell id="6H0UAOoWNLqQX3c4M_eM-58" style="edgeStyle=orthogonalEdgeStyle;rounded=0;orthogonalLoop=1;jettySize=auto;html=1;entryX=0.5;entryY=0;entryDx=0;entryDy=0;entryPerimeter=0;strokeColor=#003366;exitX=1;exitY=0.5;exitDx=0;exitDy=0;exitPerimeter=0;" parent="1" source="6" target="6H0UAOoWNLqQX3c4M_eM-57" edge="1">
          <mxGeometry relative="1" as="geometry"/>
        </mxCell>
        <mxCell id="11" value="TRUE" style="text;fontStyle=0;html=1;strokeColor=none;gradientColor=none;fillColor=none;strokeWidth=2;" parent="1" vertex="1">
          <mxGeometry x="385" y="250" width="40" height="26" as="geometry"/>
        </mxCell>
        <mxCell id="14" value="FALSE" style="text;fontStyle=0;html=1;strokeColor=none;gradientColor=none;fillColor=none;strokeWidth=2;align=center;" parent="1" vertex="1">
          <mxGeometry x="340" y="320" width="40" height="26" as="geometry"/>
        </mxCell>
        <mxCell id="qQtCLXh0LGFzrYX5itu5-61" style="edgeStyle=orthogonalEdgeStyle;rounded=0;orthogonalLoop=1;jettySize=auto;html=1;exitX=0.5;exitY=0.9;exitDx=0;exitDy=0;exitPerimeter=0;strokeColor=#003366;entryX=0.5;entryY=0;entryDx=0;entryDy=0;entryPerimeter=0;" edge="1" parent="1" source="15" target="qQtCLXh0LGFzrYX5itu5-55">
          <mxGeometry relative="1" as="geometry">
            <mxPoint x="320" y="880" as="targetPoint"/>
            <Array as="points">
              <mxPoint x="520" y="590"/>
              <mxPoint x="320" y="590"/>
            </Array>
          </mxGeometry>
        </mxCell>
        <mxCell id="15" value="แบตเตอรี่สำรอง&lt;br&gt;( BU + MTU )&lt;br&gt;คงเหลือ&lt;br&gt;50-100%" style="shape=mxgraph.flowchart.document;strokeWidth=2;gradientColor=none;gradientDirection=north;fontStyle=0;html=1;" parent="1" vertex="1">
          <mxGeometry x="449.75" y="440" width="140" height="90" as="geometry"/>
        </mxCell>
        <mxCell id="27" value="Less, น้อย" style="text;fontStyle=0;html=1;strokeColor=none;gradientColor=none;fillColor=none;strokeWidth=2;" parent="1" vertex="1">
          <mxGeometry x="609.75" y="328" width="40" height="26" as="geometry"/>
        </mxCell>
        <mxCell id="6H0UAOoWNLqQX3c4M_eM-69" style="edgeStyle=orthogonalEdgeStyle;rounded=0;orthogonalLoop=1;jettySize=auto;html=1;exitX=0.5;exitY=1;exitDx=0;exitDy=0;exitPerimeter=0;entryX=0.5;entryY=0;entryDx=0;entryDy=0;entryPerimeter=0;strokeColor=#003366;fontColor=#003366;" parent="1" source="39" target="6H0UAOoWNLqQX3c4M_eM-67" edge="1">
          <mxGeometry relative="1" as="geometry"/>
        </mxCell>
        <mxCell id="39" value="&lt;span style=&quot;color: rgb(34 , 34 , 34) ; font-family: &amp;#34;arial&amp;#34; , &amp;#34;helvetica&amp;#34; , sans-serif ; font-size: small ; white-space: normal ; background-color: rgb(255 , 255 , 255)&quot;&gt;&quot;&lt;/span&gt;&lt;span style=&quot;color: rgb(34 , 34 , 34) ; font-family: &amp;#34;arial&amp;#34; , &amp;#34;helvetica&amp;#34; , sans-serif ; font-size: small ; white-space: normal ; background-color: rgb(255 , 255 , 255)&quot;&gt;ExternalVoltage&lt;/span&gt;&lt;span style=&quot;color: rgb(34 , 34 , 34) ; font-family: &amp;#34;arial&amp;#34; , &amp;#34;helvetica&amp;#34; , sans-serif ; font-size: small ; white-space: normal ; background-color: rgb(255 , 255 , 255)&quot;&gt;&quot;&lt;br&gt;เตรียมข้อมูล&lt;br&gt;ย้อนหลัง &lt;br&gt;ไม่ต่ำกว่า 5 วัน&lt;/span&gt;" style="shape=mxgraph.flowchart.predefined_process;strokeWidth=2;gradientColor=none;gradientDirection=north;fontStyle=0;html=1;" parent="1" vertex="1">
          <mxGeometry x="624.5" y="510" width="190" height="90" as="geometry"/>
        </mxCell>
        <mxCell id="46" value="no" style="text;fontStyle=0;html=1;strokeColor=none;gradientColor=none;fillColor=none;strokeWidth=2;" parent="1" vertex="1">
          <mxGeometry x="730" y="700" width="40" height="26" as="geometry"/>
        </mxCell>
        <mxCell id="6H0UAOoWNLqQX3c4M_eM-64" style="edgeStyle=orthogonalEdgeStyle;rounded=0;orthogonalLoop=1;jettySize=auto;html=1;exitX=1;exitY=0.5;exitDx=0;exitDy=0;exitPerimeter=0;entryX=0.5;entryY=0;entryDx=0;entryDy=0;entryPerimeter=0;strokeColor=#003366;" parent="1" source="6H0UAOoWNLqQX3c4M_eM-57" target="6H0UAOoWNLqQX3c4M_eM-61" edge="1">
          <mxGeometry relative="1" as="geometry"/>
        </mxCell>
        <mxCell id="6H0UAOoWNLqQX3c4M_eM-72" style="edgeStyle=orthogonalEdgeStyle;rounded=0;orthogonalLoop=1;jettySize=auto;html=1;exitX=0.5;exitY=1;exitDx=0;exitDy=0;exitPerimeter=0;entryX=0.5;entryY=0;entryDx=0;entryDy=0;entryPerimeter=0;strokeColor=#003366;fontColor=#003366;" parent="1" source="6H0UAOoWNLqQX3c4M_eM-57" target="15" edge="1">
          <mxGeometry relative="1" as="geometry"/>
        </mxCell>
        <mxCell id="6H0UAOoWNLqQX3c4M_eM-57" value="&lt;span style=&quot;color: rgb(34 , 34 , 34) ; font-family: &amp;#34;arial&amp;#34; , &amp;#34;helvetica&amp;#34; , sans-serif ; font-size: small ; white-space: normal ; background-color: rgb(255 , 255 , 255)&quot;&gt;&quot;&lt;/span&gt;&lt;span style=&quot;color: rgb(34 , 34 , 34) ; font-family: &amp;#34;arial&amp;#34; , &amp;#34;helvetica&amp;#34; , sans-serif ; font-size: small ; white-space: normal ; background-color: rgb(255 , 255 , 255)&quot;&gt;ExternalVoltage&lt;/span&gt;&lt;span style=&quot;color: rgb(34 , 34 , 34) ; font-family: &amp;#34;arial&amp;#34; , &amp;#34;helvetica&amp;#34; , sans-serif ; font-size: small ; white-space: normal ; background-color: rgb(255 , 255 , 255)&quot;&gt;&quot;&lt;br&gt;น้อยกว่า&lt;br&gt;&amp;lt;= 12.3 V&amp;nbsp;&lt;br&gt;&lt;/span&gt;" style="shape=mxgraph.flowchart.decision;strokeWidth=2;gradientColor=none;gradientDirection=north;fontStyle=0;html=1;" parent="1" vertex="1">
          <mxGeometry x="440" y="320" width="159.5" height="78" as="geometry"/>
        </mxCell>
        <mxCell id="qQtCLXh0LGFzrYX5itu5-64" style="edgeStyle=orthogonalEdgeStyle;rounded=0;orthogonalLoop=1;jettySize=auto;html=1;exitX=0.5;exitY=1;exitDx=0;exitDy=0;exitPerimeter=0;entryX=0.5;entryY=0;entryDx=0;entryDy=0;entryPerimeter=0;strokeColor=#003366;" edge="1" parent="1" source="6H0UAOoWNLqQX3c4M_eM-59" target="qQtCLXh0LGFzrYX5itu5-55">
          <mxGeometry relative="1" as="geometry">
            <Array as="points">
              <mxPoint x="895" y="880"/>
              <mxPoint x="320" y="880"/>
            </Array>
          </mxGeometry>
        </mxCell>
        <mxCell id="6H0UAOoWNLqQX3c4M_eM-59" value="เฝ้าระวัง&lt;br&gt;แบตเตอรี่ถูกใช้งาน&lt;br&gt;ในสภาวะไม่เหมาะสม&lt;br&gt;อาจเป็นสาเหตุ&lt;br&gt;ทำให้แบตเตอรี่เสื่อม" style="shape=mxgraph.flowchart.merge_or_storage;strokeWidth=2;gradientColor=none;gradientDirection=north;fontStyle=0;html=1;labelBackgroundColor=#ffffff;" parent="1" vertex="1">
          <mxGeometry x="820" y="737" width="150" height="103" as="geometry"/>
        </mxCell>
        <mxCell id="6H0UAOoWNLqQX3c4M_eM-68" style="edgeStyle=orthogonalEdgeStyle;rounded=0;orthogonalLoop=1;jettySize=auto;html=1;exitX=0.5;exitY=1;exitDx=0;exitDy=0;exitPerimeter=0;entryX=0.5;entryY=0;entryDx=0;entryDy=0;entryPerimeter=0;strokeColor=#003366;fontColor=#003366;" parent="1" source="6H0UAOoWNLqQX3c4M_eM-61" target="39" edge="1">
          <mxGeometry relative="1" as="geometry"/>
        </mxCell>
        <mxCell id="qQtCLXh0LGFzrYX5itu5-62" value="" style="edgeStyle=orthogonalEdgeStyle;rounded=0;orthogonalLoop=1;jettySize=auto;html=1;strokeColor=#003366;" edge="1" parent="1" source="6H0UAOoWNLqQX3c4M_eM-61" target="39">
          <mxGeometry relative="1" as="geometry"/>
        </mxCell>
        <mxCell id="6H0UAOoWNLqQX3c4M_eM-61" value="แบตเตอรี่สำรอง&lt;br&gt;( BU + MTU )&lt;br&gt;คงเหลือ&lt;br&gt;0-49%&lt;span style=&quot;color: rgb(34 , 34 , 34) ; font-family: &amp;#34;arial&amp;#34; , &amp;#34;helvetica&amp;#34; , sans-serif ; font-size: small ; white-space: normal ; background-color: rgb(255 , 255 , 255)&quot;&gt;&lt;br&gt;&lt;/span&gt;" style="shape=mxgraph.flowchart.data;strokeWidth=2;gradientColor=none;gradientDirection=north;fontStyle=0;html=1;" parent="1" vertex="1">
          <mxGeometry x="640" y="398" width="159" height="80" as="geometry"/>
        </mxCell>
        <mxCell id="6H0UAOoWNLqQX3c4M_eM-66" value="" style="rounded=1;whiteSpace=wrap;html=1;" parent="1" vertex="1">
          <mxGeometry x="810" y="1663" width="120" height="60" as="geometry"/>
        </mxCell>
        <mxCell id="6H0UAOoWNLqQX3c4M_eM-71" style="edgeStyle=orthogonalEdgeStyle;rounded=0;orthogonalLoop=1;jettySize=auto;html=1;exitX=1;exitY=0.5;exitDx=0;exitDy=0;exitPerimeter=0;entryX=0.5;entryY=0;entryDx=0;entryDy=0;entryPerimeter=0;strokeColor=#003366;fontColor=#003366;" parent="1" source="6H0UAOoWNLqQX3c4M_eM-67" target="6H0UAOoWNLqQX3c4M_eM-59" edge="1">
          <mxGeometry relative="1" as="geometry"/>
        </mxCell>
        <mxCell id="6H0UAOoWNLqQX3c4M_eM-74" style="edgeStyle=orthogonalEdgeStyle;rounded=0;orthogonalLoop=1;jettySize=auto;html=1;exitX=0.5;exitY=1;exitDx=0;exitDy=0;exitPerimeter=0;entryX=0.5;entryY=0;entryDx=0;entryDy=0;entryPerimeter=0;strokeColor=#003366;fontColor=#003366;" parent="1" source="6H0UAOoWNLqQX3c4M_eM-67" target="6H0UAOoWNLqQX3c4M_eM-73" edge="1">
          <mxGeometry relative="1" as="geometry"/>
        </mxCell>
        <mxCell id="6H0UAOoWNLqQX3c4M_eM-78" style="edgeStyle=orthogonalEdgeStyle;curved=1;rounded=0;orthogonalLoop=1;jettySize=auto;html=1;exitX=0.5;exitY=0;exitDx=0;exitDy=0;exitPerimeter=0;strokeColor=#003366;fontColor=#003366;endArrow=none;endFill=0;dashed=1;" parent="1" source="6H0UAOoWNLqQX3c4M_eM-67" target="6H0UAOoWNLqQX3c4M_eM-76" edge="1">
          <mxGeometry relative="1" as="geometry"/>
        </mxCell>
        <mxCell id="6H0UAOoWNLqQX3c4M_eM-67" value="&quot;กราฟแรงดันไฟฟ้า&quot;&lt;br&gt;&amp;nbsp;แนวโน้มถดถอย" style="shape=mxgraph.flowchart.decision;strokeWidth=2;gradientColor=none;gradientDirection=north;fontStyle=0;whiteSpace=wrap;html=1;" parent="1" vertex="1">
          <mxGeometry x="640" y="630" width="159.5" height="78" as="geometry"/>
        </mxCell>
        <mxCell id="qQtCLXh0LGFzrYX5itu5-63" style="edgeStyle=orthogonalEdgeStyle;rounded=0;orthogonalLoop=1;jettySize=auto;html=1;exitX=0.5;exitY=0.9;exitDx=0;exitDy=0;exitPerimeter=0;entryX=0.5;entryY=0;entryDx=0;entryDy=0;entryPerimeter=0;strokeColor=#003366;" edge="1" parent="1" source="6H0UAOoWNLqQX3c4M_eM-73" target="qQtCLXh0LGFzrYX5itu5-55">
          <mxGeometry relative="1" as="geometry">
            <Array as="points">
              <mxPoint x="720" y="880"/>
              <mxPoint x="320" y="880"/>
            </Array>
          </mxGeometry>
        </mxCell>
        <mxCell id="6H0UAOoWNLqQX3c4M_eM-73" value="แบตเตอรี่สำรอง&lt;br&gt;มีการชาร์จกระแสไฟฟ้า&lt;br&gt;เป็นครั้งคราว&lt;br&gt;แนะนำให้ชาร์จสม่ำเสมอ" style="shape=mxgraph.flowchart.document;strokeWidth=2;gradientColor=none;gradientDirection=north;fontStyle=0;html=1;" parent="1" vertex="1">
          <mxGeometry x="649.75" y="737" width="140" height="103" as="geometry"/>
        </mxCell>
        <mxCell id="6H0UAOoWNLqQX3c4M_eM-76" value="วันที่&amp;nbsp; &amp;nbsp; &amp;nbsp; &amp;nbsp; &amp;nbsp; Volt&lt;br&gt;&lt;br&gt;1 ม.ค.&amp;nbsp; &amp;nbsp; &amp;nbsp; &amp;nbsp;12.50&lt;br&gt;2 ม.ค.&amp;nbsp; &amp;nbsp; &amp;nbsp; &amp;nbsp;12.45&lt;br&gt;3 ม.ค.&amp;nbsp; &amp;nbsp; &amp;nbsp; &amp;nbsp;12.40&lt;br&gt;4 ม.ค.&amp;nbsp; &amp;nbsp; &amp;nbsp; &amp;nbsp;12.35&lt;br&gt;5 ม.ค.&amp;nbsp; &amp;nbsp; &amp;nbsp; &amp;nbsp;12.30&lt;br&gt;6 ม.ค.&amp;nbsp; &amp;nbsp; &amp;nbsp; &amp;nbsp;12.20" style="shape=internalStorage;whiteSpace=wrap;html=1;backgroundOutline=1;fontColor=#003366;dx=51;dy=27;align=left;verticalAlign=top;" parent="1" vertex="1">
          <mxGeometry x="499.5" y="630" width="100" height="130" as="geometry"/>
        </mxCell>
        <mxCell id="qQtCLXh0LGFzrYX5itu5-60" style="edgeStyle=orthogonalEdgeStyle;rounded=0;orthogonalLoop=1;jettySize=auto;html=1;exitX=0.5;exitY=1;exitDx=0;exitDy=0;exitPerimeter=0;entryX=0.5;entryY=0;entryDx=0;entryDy=0;entryPerimeter=0;strokeColor=#003366;" edge="1" parent="1" source="6H0UAOoWNLqQX3c4M_eM-55" target="qQtCLXh0LGFzrYX5itu5-55">
          <mxGeometry relative="1" as="geometry"/>
        </mxCell>
        <mxCell id="6H0UAOoWNLqQX3c4M_eM-55" value="แบตเตอรี่ฉุกเฉิน &lt;br&gt;( MTU )&lt;br&gt;ใช้งานได้สูงสุด&lt;br&gt;&amp;nbsp;72 ชัวโมง" style="shape=mxgraph.flowchart.merge_or_storage;strokeWidth=2;gradientColor=none;gradientDirection=north;fontStyle=0;html=1;labelBackgroundColor=#ffffff;labelBorderColor=none;" parent="1" vertex="1">
          <mxGeometry x="242.63" y="373" width="154.75" height="97" as="geometry"/>
        </mxCell>
        <mxCell id="qQtCLXh0LGFzrYX5itu5-55" value="end" style="shape=mxgraph.flowchart.terminator;strokeWidth=2;gradientColor=none;gradientDirection=north;fontStyle=0;html=1;" vertex="1" parent="1">
          <mxGeometry x="259.75" y="930" width="120" height="30" as="geometry"/>
        </mxCell>
        <mxCell id="qQtCLXh0LGFzrYX5itu5-56" value="yes" style="text;fontStyle=0;html=1;strokeColor=none;gradientColor=none;fillColor=none;strokeWidth=2;" vertex="1" parent="1">
          <mxGeometry x="799.5" y="630" width="40" height="26" as="geometry"/>
        </mxCell>
        <mxCell id="qQtCLXh0LGFzrYX5itu5-57" value="More, มาก" style="text;fontStyle=0;html=1;strokeColor=none;gradientColor=none;fillColor=none;strokeWidth=2;" vertex="1" parent="1">
          <mxGeometry x="535" y="408.5" width="40" height="26" as="geometry"/>
        </mxCell>
      </root>
    </mxGraphModel>
  </diagram>
</mxfile>
